<svg width="64" height="64" viewBox="0 0 64 64" fill="none" xmlns="http://www.w3.org/2000/svg">
<path fill-rule="evenodd" clip-rule="evenodd" d="M47.7698 49.08C46.1238 51.778 47.5868 55.941 52.4008 58.106C55.2048 59.367 56.7918 60.546 57.6288 61.523C57.8018 61.83 58.1288 62.016 58.4808 62.008C58.8328 62.001 59.1518 61.8 59.3118 61.486C62.4868 54.562 55.7888 42.979 49.2078 47.602C47.5108 46.598 45.4198 45.758 43.7138 45.55C43.1668 45.483 42.6678 45.874 42.6008 46.422C42.5338 46.97 42.9248 47.469 43.4728 47.535C44.8018 47.697 46.3968 48.318 47.7698 49.08ZM10.4038 49.238C8.23684 49.942 5.51284 51.501 4.02784 53.152C3.65784 53.562 3.69184 54.195 4.10184 54.564C4.51184 54.933 5.14484 54.9 5.51384 54.49C6.64884 53.229 8.63184 52.031 10.3588 51.365C10.9858 55.616 16.3568 58.152 22.7098 55.216C26.4098 53.506 28.8838 53.029 30.4648 53.123C30.8098 53.212 31.1748 53.103 31.4148 52.839C31.6538 52.575 31.7268 52.2 31.6048 51.866C28.0698 43.181 11.8908 39.794 10.4038 49.238ZM23.2658 40.27C26.0028 38.204 31.4848 37.787 35.4228 39.195C37.8248 40.054 39.6788 41.612 39.6698 44.078V44.082C39.6698 45.738 38.3248 47.082 36.6698 47.082C35.0138 47.082 33.6698 45.738 33.6698 44.082C33.6698 43.782 33.7138 43.492 33.7958 43.219C33.9548 42.69 33.6538 42.132 33.1258 41.973C32.5968 41.814 32.0388 42.114 31.8798 42.643C31.7428 43.099 31.6698 43.582 31.6698 44.082C31.6698 46.842 33.9098 49.082 36.6698 49.082C39.4288 49.082 41.6688 46.843 41.6698 44.084C41.6818 40.742 39.3518 38.476 36.0958 37.312C31.5458 35.685 25.2228 36.286 22.0608 38.674C21.6198 39.006 21.5328 39.634 21.8648 40.074C22.1978 40.515 22.8258 40.602 23.2658 40.27ZM43.7148 35.471C48.0858 35.243 52.9818 36.888 54.8018 39.979C55.0818 40.455 55.6948 40.614 56.1708 40.334C56.6458 40.054 56.8048 39.44 56.5248 38.965C54.3918 35.34 48.7358 33.206 43.6108 33.473C43.0598 33.502 42.6358 33.973 42.6648 34.524C42.6938 35.075 43.1638 35.499 43.7148 35.471ZM5.22984 40.296C13.4398 34.658 18.0838 32.664 34.6748 32.472C52.5858 32.264 55.2798 23.214 55.1278 19.492C55.1168 15.919 52.2088 13.018 48.6288 13.018C45.0408 13.018 42.1288 15.931 42.1288 19.518C42.1288 21.98 43.4998 24.125 45.5208 25.227C46.0048 25.492 46.6128 25.313 46.8778 24.828C47.1418 24.344 46.9628 23.736 46.4788 23.472C45.0798 22.708 44.1288 21.223 44.1288 19.518C44.1288 17.034 46.1448 15.018 48.6288 15.018C51.1118 15.018 53.1288 17.034 53.1288 19.518C53.1288 19.532 53.1288 19.547 53.1298 19.561C53.2718 22.848 50.5368 30.288 34.6518 30.472C17.4278 30.672 12.6208 32.794 4.09684 38.648C3.64184 38.96 3.52684 39.583 3.83884 40.038C4.15184 40.493 4.77484 40.609 5.22984 40.296ZM5.02784 34.403C12.6218 31.464 17.1488 28.587 25.6768 28.472C26.2288 28.464 26.6708 28.01 26.6628 27.458C26.6558 26.907 26.2018 26.465 25.6498 26.472C19.3088 26.557 15.0998 28.091 10.3138 30.075C10.7758 29.117 10.8728 28.213 10.8288 27.466C10.8138 25.291 9.02684 23.515 6.82984 23.515C4.83884 23.515 3.18584 24.973 2.87984 26.878C2.79284 27.423 3.16384 27.937 3.70884 28.024C4.25384 28.112 4.76784 27.74 4.85484 27.195C5.00784 26.243 5.83484 25.515 6.82984 25.515C7.93384 25.515 8.82984 26.411 8.82984 27.515C8.82984 27.535 8.83084 27.556 8.83184 27.576C8.91684 28.97 8.10084 30.886 4.26484 32.555C3.75784 32.775 3.52584 33.365 3.74584 33.871C3.96184 34.365 4.52984 34.598 5.02784 34.403ZM19.1898 17.959C16.6268 14.509 18.6318 8.91896 25.1998 6.50196C29.0258 5.09496 31.1128 3.68296 32.1628 2.49896C32.3438 2.19196 32.6798 2.01096 33.0358 2.02796C33.3918 2.04496 33.7088 2.25796 33.8588 2.58096C37.4998 11.222 28.4548 25.057 20.7258 19.431C18.6948 20.466 15.6678 21.289 13.4488 21.172C12.8978 21.143 12.4738 20.672 12.5028 20.121C12.5318 19.57 13.0028 19.146 13.5548 19.175C15.2478 19.264 17.4978 18.709 19.1898 17.959Z" fill="#B82831"/>
</svg>
