<svg width="32" height="32" viewBox="0 0 32 32" fill="none" xmlns="http://www.w3.org/2000/svg">
<path d="M28.7146 28H26.9795C26.9885 26.4362 25.8077 25.0941 23.5075 25.0941H21.2051C21.0029 22.9709 18.9984 21.3853 16.7728 21.9098C15.872 20.9923 14.6592 20.399 13.3066 20.399C10.704 20.399 8.57792 22.569 8.28864 25.0941H7.54048C5.38432 25.0941 4.36064 26.6138 4.5344 28H3.28576C2.33312 28 2.33312 29.44 3.28576 29.44H28.7146C29.6672 29.44 29.6672 28 28.7146 28Z" fill="#fff"/>
<path d="M9.03936 10.7222C8.76288 10.4362 8.77024 9.9808 9.05632 9.704C9.34144 9.42784 9.79744 9.43456 10.0746 9.72096L13.84 13.6131C13.7885 11.5939 13.2573 8.23552 11.3562 6.2528C9.53792 4.35648 6.38144 4.09632 5.0096 4.07808C4.62336 4.07296 4.30688 4.3728 4.29184 4.75872C4.23936 6.11968 4.36064 9.248 6.34368 11.2314C8.24192 13.1296 10.3427 13.7066 12.0947 13.8803L9.03936 10.7222Z" fill="#fff"/>
<path d="M15.0886 19.2477C15.4294 15.6614 17.3114 12.6486 20.479 10.3149C21.2621 10.0048 21.8256 11.0342 21.1869 11.5392C19.7178 12.6995 18.697 13.9248 17.8195 15.2333C20.0659 15.0461 22.6819 14.4051 24.993 12.0941C27.6957 9.39136 27.8499 5.00288 27.8035 3.35904C27.793 2.98176 27.4928 2.67776 27.1155 2.66304C25.5107 2.60032 21.2858 2.75584 18.287 5.77216C16.2874 7.784 15.5098 11.0266 15.2832 13.6237C14.2323 15.2461 13.439 17.065 13.0989 18.9773C13.7248 18.9552 14.239 18.985 15.0886 19.2477Z" fill="#fff"/>
</svg>