<svg preserveAspectRatio="none" width="100%" height="100%" overflow="visible" style="display: block;" viewBox="0 0 16 16" fill="none" xmlns="http://www.w3.org/2000/svg">
<g id="fi_6168373" clip-path="url(#clip0_0_164)">
<path id="Vector" d="M3.09687 14.3326C3.09634 14.214 3.06068 14.0982 2.99438 13.9998C2.92808 13.9014 2.83412 13.8248 2.72436 13.7798C2.6146 13.7348 2.49396 13.7233 2.37766 13.7467C2.26136 13.7702 2.15463 13.8276 2.07092 13.9117C1.98722 13.9958 1.9303 14.1028 1.90735 14.2192C1.8844 14.3356 1.89644 14.4561 1.94197 14.5657C1.98749 14.6753 2.06445 14.7689 2.16313 14.8347C2.26182 14.9006 2.3778 14.9357 2.49644 14.9357C2.65598 14.9352 2.80879 14.8714 2.92136 14.7583C3.03392 14.6453 3.09704 14.4922 3.09687 14.3326ZM2.271 14.3326C2.27152 14.2881 2.28519 14.2448 2.31029 14.2081C2.33538 14.1714 2.37077 14.1429 2.41202 14.1262C2.45326 14.1096 2.49851 14.1055 2.54207 14.1145C2.58563 14.1235 2.62556 14.1452 2.65683 14.1768C2.68809 14.2084 2.7093 14.2486 2.71778 14.2923C2.72627 14.3359 2.72164 14.3811 2.7045 14.4222C2.68735 14.4632 2.65845 14.4983 2.62143 14.5229C2.58441 14.5476 2.54092 14.5608 2.49644 14.5607C2.43634 14.5603 2.37888 14.536 2.33664 14.4932C2.29441 14.4505 2.27085 14.3927 2.27113 14.3326H2.271Z" fill="var(--fill-0, #1E3A8A)"/>
<path id="Vector_2" d="M1.48959 8.37625C1.48932 8.42597 1.50881 8.47377 1.54377 8.50912C1.57873 8.54448 1.62631 8.5645 1.67603 8.56478H1.67709C1.72664 8.56478 1.77418 8.54517 1.80931 8.51023C1.84445 8.47529 1.86432 8.42786 1.86459 8.37831L1.88022 5.54372C1.88035 5.5191 1.87564 5.49469 1.86634 5.47189C1.85704 5.44909 1.84335 5.42834 1.82603 5.41083C1.80872 5.39333 1.78812 5.3794 1.76543 5.36985C1.74273 5.36031 1.71837 5.35532 1.69375 5.35519H1.69269C1.64314 5.35519 1.5956 5.3748 1.56047 5.40974C1.52533 5.44468 1.50546 5.49211 1.50519 5.54166L1.48959 8.37625Z" fill="var(--fill-0, #1E3A8A)"/>
<path id="Vector_3" d="M1.69581 5.01616H1.69766C1.74707 5.01616 1.79449 4.99665 1.8296 4.96188C1.86471 4.92711 1.88468 4.87988 1.88516 4.83047L1.89022 4.30703C1.89069 4.25731 1.8714 4.20943 1.83657 4.17394C1.80175 4.13844 1.75425 4.11823 1.70453 4.11775H1.70269C1.65327 4.11775 1.60585 4.13725 1.57074 4.17203C1.53563 4.2068 1.51567 4.25402 1.51519 4.30344L1.51013 4.82684C1.50989 4.85147 1.5145 4.8759 1.5237 4.89874C1.5329 4.92158 1.54652 4.94238 1.56376 4.95996C1.581 4.97754 1.60154 4.99155 1.6242 5.00119C1.64685 5.01083 1.67119 5.01592 1.69581 5.01616Z" fill="var(--fill-0, #1E3A8A)"/>
<path id="Vector_4" d="M1.49828 15.6875H3.66125H3.66631L14.5259 15.3941C14.6324 15.3909 14.7373 15.3667 14.8345 15.323C14.9317 15.2792 15.0194 15.2167 15.0924 15.139C15.1654 15.0614 15.2224 14.9701 15.2601 14.8703C15.2978 14.7706 15.3155 14.6645 15.3122 14.5579L15.2479 12.3767C15.242 12.162 15.1511 11.9584 14.9953 11.8107C14.8394 11.6629 14.6313 11.583 14.4167 11.5885L10.4754 11.6982L14.4986 9.96866C14.6963 9.883 14.8519 9.72253 14.9316 9.52237C15.0112 9.32222 15.0083 9.09867 14.9234 8.90066L14.0688 6.90491C14.0268 6.80633 13.9656 6.71709 13.8888 6.64239C13.812 6.56768 13.7211 6.50899 13.6214 6.46975C13.5218 6.4305 13.4152 6.41148 13.3081 6.4138C13.201 6.41611 13.0954 6.43971 12.9975 6.48322L7.34706 8.99959L12.1244 4.19022C12.2755 4.03743 12.3602 3.83124 12.3602 3.61639C12.3602 3.40154 12.2755 3.19535 12.1244 3.04256L10.5921 1.5C10.5171 1.42437 10.4279 1.36434 10.3296 1.32337C10.2313 1.2824 10.1258 1.26131 10.0193 1.26131C9.91279 1.26131 9.80734 1.2824 9.70903 1.32337C9.61071 1.36434 9.52149 1.42437 9.4465 1.5L4.47188 6.50775V1.12328C4.47188 0.908276 4.38648 0.702074 4.23446 0.550028C4.08244 0.397981 3.87626 0.312541 3.66125 0.3125H1.49828C1.28325 0.3125 1.07702 0.397921 0.924972 0.549972C0.772921 0.702023 0.6875 0.908249 0.6875 1.12328V10.7125C0.6875 10.7622 0.707254 10.8099 0.742417 10.8451C0.777581 10.8802 0.825272 10.9 0.875 10.9C0.924728 10.9 0.972419 10.8802 1.00758 10.8451C1.04275 10.8099 1.0625 10.7622 1.0625 10.7125V3.05441H4.09688V14.8767C4.09689 14.9917 4.05143 15.1021 3.97041 15.1837C3.88938 15.2654 3.77936 15.3117 3.66434 15.3125H3.6585H1.49828C1.38271 15.3125 1.27187 15.2666 1.19015 15.1849C1.10842 15.1031 1.06251 14.9923 1.0625 14.8767V12.275C1.0625 12.2253 1.04275 12.1776 1.00758 12.1424C0.972419 12.1073 0.924728 12.0875 0.875 12.0875C0.825272 12.0875 0.777581 12.1073 0.742417 12.1424C0.707254 12.1776 0.6875 12.2253 0.6875 12.275V14.8768C0.687533 15.0919 0.772969 15.298 0.925017 15.4501C1.07706 15.6021 1.28327 15.6875 1.49828 15.6875ZM7.32047 15.2136L7.23153 13.0926L9.5425 12.0991L9.64197 12.0963L9.73369 15.1484L7.32047 15.2136ZM5.93663 13.2411L5.13594 11.2255L6.61578 9.73575L6.80984 9.64934L7.93956 12.38L5.93663 13.2411ZM14.4272 11.9632C14.5425 11.9608 14.654 12.0041 14.7375 12.0835C14.821 12.163 14.8698 12.2723 14.8731 12.3875L14.9373 14.5688C14.9392 14.6265 14.9296 14.684 14.9091 14.738C14.8886 14.792 14.8576 14.8414 14.8178 14.8833C14.7789 14.9248 14.7322 14.9582 14.6803 14.9815C14.6284 15.0048 14.5724 15.0175 14.5156 15.019L12.5461 15.0722L12.4543 12.0179L14.4272 11.9632ZM12.0796 12.0285L12.1713 15.0825L10.1086 15.1383L10.0169 12.0859L12.0796 12.0285ZM13.15 6.82578C13.2021 6.80235 13.2585 6.78961 13.3156 6.78831C13.3728 6.78701 13.4296 6.79718 13.4827 6.81822C13.5366 6.8392 13.5856 6.87074 13.6271 6.911C13.6685 6.95125 13.7014 6.9994 13.7239 7.05259L14.5787 9.04819C14.6246 9.15482 14.6263 9.27528 14.5836 9.3832C14.5408 9.49112 14.457 9.5777 14.3506 9.624L12.8651 10.2625L11.7168 7.464L13.15 6.82578ZM11.3739 7.61672L12.5205 10.4107L10.6223 11.2267L9.48609 8.4575L11.3739 7.61672ZM9.14328 8.61012L10.2777 11.3748L8.28391 12.2319L7.15256 9.49687L9.14328 8.61012ZM9.7125 1.76437C9.75264 1.72383 9.80041 1.69164 9.85306 1.66968C9.90571 1.64771 9.9622 1.6364 10.0192 1.6364C10.0763 1.6364 10.1328 1.64771 10.1854 1.66968C10.2381 1.69164 10.2859 1.72383 10.326 1.76437L11.8584 3.30697C11.9399 3.38939 11.9855 3.50062 11.9855 3.61652C11.9855 3.73241 11.9399 3.84364 11.8584 3.92606L10.4712 5.32253L8.40603 3.07959L9.7125 1.76437ZM8.14144 3.34591L10.2066 5.58881L8.67225 7.13334L6.60087 4.89669L8.14144 3.34591ZM6.33644 5.16297L8.40781 7.39962L6.86459 8.95312L4.82378 6.68569L6.33644 5.16297ZM4.47188 7.03984L4.55894 6.95219L6.6 9.21966L5.06309 10.7668L4.47188 10.1007V7.03984ZM4.47188 10.6657L4.79803 11.0334L4.47188 11.3617V10.6657ZM4.47188 11.8939L4.84753 11.5157L5.59181 13.3893L4.47188 13.8707V11.8939ZM4.47188 14.8768V14.279L6.86272 13.2512L6.94541 15.2238L4.35666 15.2937C4.43231 15.1678 4.47215 15.0236 4.47188 14.8767V14.8768ZM1.0625 2.67941V1.12316C1.06253 1.0076 1.10846 0.896791 1.19018 0.815093C1.2719 0.733395 1.38273 0.6875 1.49828 0.6875H3.66125C3.7768 0.687541 3.8876 0.733472 3.96929 0.815193C4.05098 0.896913 4.09688 1.00773 4.09688 1.12328V2.67953L1.0625 2.67941Z" fill="var(--fill-0, #1E3A8A)"/>
</g>
<defs>
<clipPath id="clip0_0_164">
<rect width="16" height="16" fill="white"/>
</clipPath>
</defs>
</svg>
