<svg preserveAspectRatio="none" width="100%" height="100%" overflow="visible" style="display: block;" viewBox="0 0 16 16" fill="none" xmlns="http://www.w3.org/2000/svg">
<g id="fi_1625633">
<path id="Vector" d="M13.8532 3.60725L8.05322 2.00725C8.01836 1.99758 7.98164 1.99758 7.94678 2.00725L2.14678 3.60725C2.06006 3.63117 2 3.71008 2 3.80002V5.00002C2 5.11047 2.08955 5.20002 2.2 5.20002V5.50002C2.20127 5.88019 2.4415 6.21847 2.8 6.34484V12.4H2.2C2.08955 12.4 2 12.4896 2 12.6V13.8C2 13.9104 2.08955 14 2.2 14H13.8C13.9104 14 14 13.9104 14 13.8V12.6C14 12.4896 13.9104 12.4 13.8 12.4H13.2V6.34484C13.5585 6.21847 13.7988 5.88019 13.8 5.50002V5.20002C13.9104 5.20002 14 5.11047 14 5.00002V3.80002C14 3.71008 13.9399 3.63117 13.8532 3.60725ZM2.4 3.95246L8 2.40745L13.6 3.95246V4.80002H2.4V3.95246ZM12 5.50002C12 5.77619 11.7762 6.00002 11.5 6.00002C11.2238 6.00002 11 5.77619 11 5.50002V5.20002H12V5.50002ZM10.7566 12.4C10.8476 12.1701 10.7925 11.9082 10.6166 11.7344C10.4773 11.5955 10.3993 11.4067 10.4 11.21V10.2C10.3997 9.50167 10.0945 8.83839 9.56436 8.3838C10.2314 8.07628 11.0136 8.16036 11.6 8.60265V12.4H10.7566ZM4 5.20002H5V5.50002C5 5.77619 4.77617 6.00002 4.5 6.00002C4.22383 6.00002 4 5.77619 4 5.50002V5.20002ZM6.4 5.20002V5.50002C6.4 5.77619 6.17617 6.00002 5.9 6.00002C5.62383 6.00002 5.4 5.77619 5.4 5.50002V5.20002H6.4ZM7.8 5.20002V5.50002C7.8 5.77619 7.57617 6.00002 7.3 6.00002C7.02383 6.00002 6.8 5.77619 6.8 5.50002V5.20002H7.8ZM9.2 5.20002V5.50002C9.2 5.77619 8.97617 6.00002 8.7 6.00002C8.42383 6.00002 8.2 5.77619 8.2 5.50002V5.20002H9.2ZM10.6 5.20002V5.50002C10.6 5.77619 10.3762 6.00002 10.1 6.00002C9.82383 6.00002 9.6 5.77619 9.6 5.50002V5.20002H10.6ZM4.4 8.60265C4.98682 8.16124 5.76836 8.07726 6.43564 8.3838C5.90547 8.83839 5.60029 9.50167 5.6 10.2V11.21C5.60059 11.4068 5.52236 11.5956 5.38281 11.7344C5.20693 11.9082 5.15186 12.1701 5.24277 12.4H4.4V8.60265ZM5.04404 7.20001H6.15596L6.02725 7.84406C5.74473 7.79259 5.45527 7.79259 5.17285 7.84406L5.04404 7.20001ZM5.6 12.1758C5.5998 12.1163 5.62344 12.0592 5.66563 12.0172C5.88037 11.8036 6.00078 11.5129 6 11.21V10.2C6 9.09542 6.89541 8.20001 8 8.20001C9.10459 8.20001 10 9.09542 10 10.2V11.21C9.99922 11.5129 10.1196 11.8036 10.3344 12.0172C10.3985 12.0814 10.4178 12.1778 10.3831 12.2616C10.3483 12.3454 10.2665 12.4001 10.1758 12.4H5.82422C5.70039 12.3999 5.6001 12.2996 5.6 12.1758ZM7.44404 7.20001H8.55596L8.42803 7.84005C8.14521 7.78615 7.85479 7.78615 7.57197 7.84005L7.44404 7.20001ZM9.84404 7.20001H10.956L10.8272 7.84406C10.5447 7.79259 10.2553 7.79259 9.97285 7.84406L9.84404 7.20001ZM11.6 8.12443C11.4773 8.05314 11.3483 7.99327 11.2148 7.94542L11.396 7.04005C11.408 6.98117 11.393 6.92003 11.355 6.87355C11.317 6.82697 11.2601 6.80001 11.2 6.80001H9.6C9.53994 6.80001 9.48301 6.82697 9.44502 6.87355C9.40703 6.92003 9.39199 6.98117 9.404 7.04005L9.58398 7.94425C9.4502 7.99249 9.321 8.05275 9.19805 8.12423C9.07559 8.05343 8.94707 7.99366 8.81396 7.94562L8.996 7.04005C9.00801 6.98117 8.99297 6.92003 8.95498 6.87355C8.91699 6.82697 8.86006 6.80001 8.8 6.80001H7.2C7.13994 6.80001 7.08301 6.82697 7.04502 6.87355C7.00703 6.92003 6.99199 6.98117 7.004 7.04005L7.18516 7.9462C7.05215 7.99425 6.92363 8.05402 6.80117 8.12482C6.67813 8.05343 6.54902 7.99318 6.41523 7.94484L6.59521 7.04083C6.60742 6.98195 6.59258 6.92072 6.55479 6.87404C6.51689 6.82736 6.46006 6.80021 6.4 6.80001H4.8C4.73994 6.80001 4.68301 6.82697 4.64502 6.87355C4.60703 6.92003 4.59199 6.98117 4.604 7.04005L4.78516 7.9462C4.65166 7.99386 4.52275 8.05353 4.4 8.12443V6.38986C4.43311 6.39513 4.4665 6.39855 4.5 6.40002C4.77314 6.39904 5.03096 6.27336 5.2 6.05881C5.36846 6.27423 5.62656 6.40002 5.9 6.40002C6.17344 6.40002 6.43154 6.27423 6.6 6.05881C6.76846 6.27423 7.02656 6.40002 7.3 6.40002C7.57344 6.40002 7.83154 6.27423 8 6.05881C8.16846 6.27423 8.42656 6.40002 8.7 6.40002C8.97344 6.40002 9.23154 6.27423 9.4 6.05881C9.56846 6.27423 9.82656 6.40002 10.1 6.40002C10.3734 6.40002 10.6315 6.27423 10.8 6.05881C10.969 6.27336 11.2269 6.39904 11.5 6.40002C11.5335 6.39855 11.5669 6.39513 11.6 6.38986V8.12443ZM2.6 5.50002V5.20002H3.6V5.50002C3.6 5.77619 3.37617 6.00002 3.1 6.00002C2.82383 6.00002 2.6 5.77619 2.6 5.50002ZM3.2 6.38986C3.43604 6.36369 3.65195 6.24455 3.8 6.05881C3.85664 6.13166 3.92402 6.19533 4 6.24757V12.4H3.2V6.38986ZM13.6 13.6H2.4V12.8H13.6V13.6ZM12.576 12.4H12V6.24757C12.076 6.19533 12.1434 6.13166 12.2 6.05881C12.348 6.24455 12.564 6.36369 12.8 6.38986V12.4H12.576ZM13.4 5.50002C13.4 5.77619 13.1762 6.00002 12.9 6.00002C12.6238 6.00002 12.4 5.77619 12.4 5.50002V5.20002H13.4V5.50002Z" fill="var(--fill-0, #AA7300)"/>
<path id="Vector_2" d="M8 4C8.55225 4 9 3.77612 9 3.5C9 3.22388 8.55225 3 8 3C7.44775 3 7 3.22388 7 3.5C7 3.77612 7.44775 4 8 4ZM8 3.25C8.27612 3.25 8.5 3.36194 8.5 3.5C8.5 3.63806 8.27612 3.75 8 3.75C7.72388 3.75 7.5 3.63806 7.5 3.5C7.5 3.36194 7.72388 3.25 8 3.25Z" fill="var(--fill-0, #AA7300)"/>
<path id="Vector_3" d="M8.25 11.1429H7.25V11.5714H7.75V12H8.25V11.5714C8.66418 11.5714 9 11.2836 9 10.9286C9 10.5736 8.66418 10.2857 8.25 10.2857H7.75C7.61194 10.2857 7.5 10.1898 7.5 10.0714C7.5 9.95309 7.61194 9.85714 7.75 9.85714H8.75V9.42857H8.25V9H7.75V9.42857C7.33582 9.42857 7 9.71641 7 10.0714C7 10.4264 7.33582 10.7143 7.75 10.7143H8.25C8.38806 10.7143 8.5 10.8102 8.5 10.9286C8.5 11.0469 8.38806 11.1429 8.25 11.1429Z" fill="var(--fill-0, #AA7300)"/>
</g>
</svg>
