<svg preserveAspectRatio="none" width="100%" height="100%" overflow="visible" style="display: block;" viewBox="0 0 16 16" fill="none" xmlns="http://www.w3.org/2000/svg">
<g id="fi_10221252">
<path id="Vector" d="M9.08 2.4944C9.1296 2.3712 9.2688 2.3104 9.392 2.36C9.5152 2.4096 9.5744 2.5488 9.5248 2.672C9.488 2.7664 9.3984 2.8224 9.30224 2.8224C9.27344 2.8224 9.24304 2.8176 9.21264 2.8064C9.09104 2.7568 9.03024 2.616 9.08 2.4944ZM9.51024 2.0624C9.5392 2.0752 9.5696 2.08 9.6 2.08C9.696 2.08 9.7856 2.0224 9.8224 1.9296C9.87216 1.8064 9.8128 1.6656 9.6896 1.6176C9.5664 1.568 9.42576 1.6272 9.3776 1.7504C9.328 1.8736 9.3872 2.0144 9.51024 2.0624ZM6.4 2.08C6.43024 2.08 6.4592 2.0752 6.4896 2.0624C6.61296 2.0128 6.67216 1.8736 6.6224 1.7504C6.5728 1.6272 6.4336 1.568 6.3104 1.6176C6.1872 1.6656 6.128 1.8064 6.1776 1.9296C6.2144 2.0224 6.30384 2.08 6.4 2.08ZM6.4736 2.672C6.512 2.7664 6.6016 2.8224 6.69744 2.8224C6.7264 2.8224 6.75664 2.8176 6.7856 2.8064C6.9088 2.7568 6.96944 2.616 6.92 2.4928C6.87024 2.3712 6.73104 2.3104 6.608 2.36C6.48496 2.4096 6.42384 2.5488 6.4736 2.672ZM12.4128 6.0048C12.443 6.0176 12.4736 6.0224 12.5024 6.0224C12.5986 6.0224 12.688 5.9664 12.725 5.872C12.7746 5.7488 12.7152 5.6096 12.5922 5.56C12.4688 5.5104 12.3296 5.5712 12.2802 5.6944C12.2302 5.816 12.2896 5.9568 12.4128 6.0048ZM12.7102 5.2624C12.7408 5.2752 12.7696 5.28 12.8 5.28C12.896 5.28 12.9856 5.2224 13.0224 5.1296C13.0722 5.0064 13.0128 4.8672 12.8896 4.8176C12.7664 4.768 12.6272 4.8272 12.5776 4.9504C12.528 5.0736 12.5872 5.2128 12.7102 5.2624ZM3.2 5.28C3.23024 5.28 3.2592 5.2752 3.2896 5.2624C3.41296 5.2144 3.47216 5.0736 3.4224 4.9504C3.3728 4.8272 3.2336 4.768 3.1104 4.8176C2.9872 4.8656 2.928 5.0064 2.9776 5.1296C3.0144 5.2224 3.10384 5.28 3.2 5.28ZM3.2736 5.872C3.312 5.9664 3.4016 6.0224 3.49744 6.0224C3.5264 6.0224 3.55664 6.0176 3.5856 6.0048C3.7088 5.9568 3.76944 5.816 3.72 5.6928C3.67024 5.5712 3.53104 5.5104 3.408 5.56C3.28496 5.6096 3.22384 5.7488 3.2736 5.872ZM13.84 13.6C13.84 14.1734 13.3734 14.64 12.8 14.64H3.2C2.62656 14.64 2.16 14.1734 2.16 13.6C2.16 12.2253 3.21664 11.0939 4.56 10.9722V9.49376C4.30704 9.4256 3.55504 9.17616 3.19072 8.54672C2.85376 7.96464 2.9648 7.25888 3.03664 6.95552L2.33808 6.25696C2.24432 6.16336 2.24432 6.0112 2.33808 5.9176C2.43184 5.82384 2.58368 5.82384 2.67744 5.9176L3.42128 6.66144C3.52624 6.6888 3.74176 6.7544 3.98176 6.87648C3.96848 6.79984 3.95984 6.72112 3.95984 6.64016C3.95984 6.02896 4.37984 5.52704 4.55984 5.33984V4.8C4.55984 4.66736 4.66736 4.56 4.79984 4.56C4.93232 4.56 5.03984 4.66736 5.03984 4.8V5.33968C5.21984 5.52688 5.63984 6.02864 5.63984 6.64C5.63984 6.72096 5.6312 6.79968 5.61792 6.87632C5.86272 6.75184 6.08288 6.68576 6.18528 6.65936C6.12448 6.25584 6.1888 5.87712 6.23648 5.67536L5.53792 4.9768C5.44416 4.8832 5.44416 4.73104 5.53792 4.63744C5.63168 4.54368 5.78352 4.54368 5.87728 4.63744L6.2456 5.00576C6.096 4.51088 6.1784 4.00144 6.23664 3.75552L5.53808 3.05696C5.44432 2.96336 5.44432 2.8112 5.53808 2.7176C5.63184 2.62384 5.78368 2.62384 5.87744 2.7176L6.62128 3.46144C6.72624 3.4888 6.94176 3.5544 7.18176 3.67648C7.16848 3.59984 7.15984 3.52112 7.15984 3.44016C7.15984 2.82896 7.57984 2.32704 7.75984 2.13984V1.6C7.75984 1.46736 7.86736 1.36 7.99984 1.36C8.13232 1.36 8.23984 1.46736 8.23984 1.6V2.13968C8.41984 2.32688 8.83984 2.82864 8.83984 3.44C8.83984 3.52096 8.8312 3.59968 8.81792 3.67632C9.05808 3.55424 9.27344 3.48864 9.3784 3.46128L10.1222 2.71744C10.216 2.62368 10.3678 2.62368 10.4616 2.71744C10.5554 2.81104 10.5554 2.9632 10.4616 3.0568L9.76304 3.75536C9.82128 4.00128 9.90368 4.51072 9.75408 5.0056L10.1224 4.63728C10.2162 4.54352 10.368 4.54352 10.4618 4.63728C10.5555 4.73088 10.5555 4.88304 10.4618 4.97664L9.7632 5.6752C9.81104 5.87696 9.8752 6.25568 9.8144 6.6592C9.91696 6.6856 10.137 6.75168 10.3818 6.87616C10.3685 6.79952 10.3598 6.7208 10.3598 6.63984C10.3598 6.02864 10.7798 5.52672 10.9598 5.33952V4.8C10.9598 4.66736 11.0674 4.56 11.1998 4.56C11.3323 4.56 11.4398 4.66736 11.4398 4.8V5.33968C11.6198 5.52688 12.0398 6.02864 12.0398 6.64C12.0398 6.72096 12.0312 6.79968 12.0179 6.87632C12.2581 6.75424 12.4734 6.68864 12.5784 6.66128L13.3222 5.91744C13.416 5.82368 13.5678 5.82368 13.6616 5.91744C13.7554 6.01104 13.7554 6.1632 13.6616 6.2568L12.963 6.95536C13.0349 7.25872 13.1459 7.96448 12.809 8.54656C12.4446 9.176 11.6926 9.42544 11.4397 9.4936V10.972C12.7834 11.0939 13.84 12.2253 13.84 13.6ZM10.24 12.4C10.24 12.4882 10.3117 12.56 10.4 12.56C10.4883 12.56 10.56 12.4882 10.56 12.4V11.44H10.24V12.4ZM10.96 10.96V9.49376C10.707 9.4256 9.95504 9.17616 9.59072 8.54672C9.41072 8.23584 9.35952 7.88992 9.36096 7.58816C8.97232 7.98448 8.44416 8.15872 8.24 8.21376V10.96H10.96ZM5.44 12.4C5.44 12.4882 5.51168 12.56 5.6 12.56C5.68832 12.56 5.76 12.4882 5.76 12.4V11.44H5.44V12.4ZM7.76 10.96V8.21376C7.55584 8.15872 7.02768 7.98432 6.63904 7.58816C6.64048 7.88992 6.58912 8.236 6.40928 8.54672C6.04496 9.17616 5.29296 9.4256 5.04 9.49376V10.96H7.76ZM6.80608 5.10624C7.02272 5.48048 7.45536 5.684 7.72016 5.77824C7.77072 5.50256 7.81024 5.02784 7.59392 4.65392C7.37728 4.27968 6.94464 4.07616 6.67984 3.98192C6.62928 4.2576 6.58976 4.73232 6.80608 5.10624ZM9.32016 3.98192C9.05536 4.076 8.62288 4.27952 8.40608 4.65392C8.18976 5.02768 8.22928 5.5024 8.27984 5.77824C8.54464 5.68416 8.97712 5.48064 9.19392 5.10624C9.41008 4.73232 9.37072 4.25776 9.32016 3.98192ZM6.80608 7.02624C7.02272 7.40048 7.45536 7.604 7.72016 7.69824C7.77072 7.42256 7.81024 6.94784 7.59392 6.57392C7.37728 6.19968 6.94464 5.99616 6.67984 5.90192C6.62928 6.1776 6.58976 6.65232 6.80608 7.02624ZM8 6.29248C7.99568 6.29472 7.99136 6.29712 7.98688 6.29904C7.99104 6.30592 7.99584 6.31216 8 6.3192C8.00416 6.31216 8.0088 6.30592 8.01312 6.29904C8.00864 6.29712 8.00432 6.29456 8 6.29248ZM8.27984 7.69808C8.54464 7.604 8.97712 7.40048 9.19392 7.02608C9.41024 6.65232 9.37072 6.1776 9.32016 5.90176C9.05536 5.99584 8.62288 6.19936 8.40608 6.57376C8.18992 6.94768 8.22928 7.42224 8.27984 7.69808ZM7.84 12.4C7.84 12.4882 7.91168 12.56 8 12.56C8.08832 12.56 8.16 12.4882 8.16 12.4V11.44H7.84V12.4ZM12.5202 7.18192C12.2554 7.276 11.8229 7.47952 11.6061 7.85392C11.3898 8.22768 11.4293 8.7024 11.4798 8.97824C11.7446 8.88416 12.1771 8.68064 12.3939 8.30624C12.6101 7.93232 12.5707 7.45776 12.5202 7.18192ZM10.84 6.64C10.84 6.98528 11.047 7.30144 11.2 7.48784C11.3528 7.30144 11.56 6.98528 11.56 6.64C11.56 6.29472 11.353 5.97856 11.2 5.79216C11.0472 5.97856 10.84 6.29472 10.84 6.64ZM10.0061 8.30624C10.2227 8.68048 10.6554 8.884 10.9202 8.97824C10.9707 8.70256 11.0102 8.22784 10.7939 7.85392C10.5773 7.47968 10.1446 7.27616 9.87984 7.18192C9.82928 7.4576 9.78976 7.93232 10.0061 8.30624ZM7.64 3.44C7.64 3.78528 7.84704 4.10144 8 4.28784C8.1528 4.10144 8.36 3.78528 8.36 3.44C8.36 3.09472 8.15296 2.77856 8 2.59216C7.8472 2.77856 7.64 3.09472 7.64 3.44ZM6.12016 7.18192C5.85536 7.276 5.42288 7.47952 5.20608 7.85392C4.98976 8.22768 5.02928 8.7024 5.07984 8.97824C5.34464 8.88416 5.77712 8.68064 5.99392 8.30624C6.21008 7.93232 6.17072 7.45776 6.12016 7.18192ZM4.44 6.64C4.44 6.98528 4.64704 7.30144 4.8 7.48784C4.9528 7.30144 5.16 6.98528 5.16 6.64C5.16 6.29472 4.95296 5.97856 4.8 5.79216C4.6472 5.97856 4.44 6.29472 4.44 6.64ZM4.39392 7.85376C4.17728 7.47952 3.74464 7.276 3.47984 7.18176C3.42928 7.45744 3.38976 7.93216 3.60608 8.30608C3.82272 8.68032 4.25536 8.88384 4.52016 8.97808C4.57072 8.7024 4.61024 8.22768 4.39392 7.85376ZM13.36 13.6C13.36 12.409 12.391 11.44 11.2 11.44H11.04V12.4C11.04 12.753 10.753 13.04 10.4 13.04C10.047 13.04 9.76 12.753 9.76 12.4V11.44H8.64V12.4C8.64 12.753 8.35296 13.04 8 13.04C7.64704 13.04 7.36 12.753 7.36 12.4V11.44H6.24V12.4C6.24 12.753 5.95296 13.04 5.6 13.04C5.24704 13.04 4.96 12.753 4.96 12.4V11.44H4.8C3.60896 11.44 2.64 12.409 2.64 13.6C2.64 13.9088 2.8912 14.16 3.2 14.16H12.8C13.1088 14.16 13.36 13.9088 13.36 13.6Z" fill="var(--fill-0, #15803D)"/>
</g>
</svg>
